<svg  viewBox="0 0 160 60" fill="none" xmlns="http://www.w3.org/2000/svg" shape-rendering="crispEdges">
<path d="M90 0H30V10H90V0Z" fill="currentColor"/>
<path d="M160 0H100V10H160V0Z" fill="currentColor"/>
<path d="M40 10H30V20H40V10Z" fill="currentColor"/>
<path d="M90 10H80V20H90V10Z" fill="currentColor"/>
<path d="M110 10H100V20H110V10Z" fill="currentColor"/>
<path d="M160 10H150V20H160V10Z" fill="currentColor"/>
<path d="M40 20H0V30H40V20Z" fill="currentColor"/>
<path d="M110 20H80V30H110V20Z" fill="currentColor"/>
<path d="M160 20H150V30H160V20Z" fill="currentColor"/>
<path d="M10 30H0V40H10V30Z" fill="currentColor"/>
<path d="M40 30H30V40H40V30Z" fill="currentColor"/>
<path d="M90 30H80V40H90V30Z" fill="currentColor"/>
<path d="M110 30H100V40H110V30Z" fill="currentColor"/>
<path d="M160 30H150V40H160V30Z" fill="currentColor"/>
<path d="M10 40H0V50H10V40Z" fill="currentColor"/>
<path d="M40 40H30V50H40V40Z" fill="currentColor"/>
<path d="M90 40H80V50H90V40Z" fill="currentColor"/>
<path d="M110 40H100V50H110V40Z" fill="currentColor"/>
<path d="M160 40H150V50H160V40Z" fill="currentColor"/>
<path d="M90 50H30V60H90V50Z" fill="currentColor"/>
<path d="M160 50H100V60H160V50Z" fill="currentColor"/>
</svg>
