<?xml version="1.0" encoding="utf-8"?>
<!-- Generator: Adobe Illustrator 16.0.0, SVG Export Plug-In . SVG Version: 6.00 Build 0)  -->
<!DOCTYPE svg PUBLIC "-//W3C//DTD SVG 1.1//EN" "http://www.w3.org/Graphics/SVG/1.1/DTD/svg11.dtd">
<svg version="1.1" xmlns="http://www.w3.org/2000/svg" xmlns:xlink="http://www.w3.org/1999/xlink" x="0px" y="0px" width="250px"
	 height="250px" viewBox="0 0 250 250" enable-background="new 0 0 250 250" xml:space="preserve">
<g id="Layer_08">
	<path fill="#EBEBEB" d="M125,1.281c15.602,0,31.033,2.944,45.54,8.686c15.717,6.223,29.989,15.597,41.941,27.549
		c11.954,11.954,21.329,26.225,27.552,41.943c5.743,14.506,8.687,29.938,8.687,45.542c0,15.601-2.944,31.032-8.686,45.539
		c-6.223,15.718-15.597,29.989-27.549,41.942c-11.954,11.954-26.225,21.328-41.943,27.551c-14.506,5.743-29.938,8.687-45.542,8.687
		c-15.601,0-31.032-2.943-45.539-8.686c-15.717-6.222-29.989-15.596-41.942-27.549c-11.954-11.953-21.328-26.225-27.551-41.943
		C4.224,156.035,1.281,140.603,1.281,125s2.943-31.034,8.686-45.54c6.222-15.716,15.596-29.988,27.549-41.942
		C49.468,25.566,63.741,16.19,79.458,9.968C93.965,4.225,109.397,1.281,125,1.281z"/>
</g>
<g id="Layer_03">
	<rect x="140.625" y="93.75" fill="#FFFFFF" width="15.625" height="31.25"/>
	<rect x="85.938" y="93.75" fill="#FFFFFF" width="15.625" height="31.25"/>
</g>
<g id="Layer_01">
	<polygon fill="#D0D1D2" points="68.455,109.124 68.455,68.801 181.545,68.801 181.545,165.574 68.455,165.574 	"/>
</g>
<g id="Layer_04">
	<rect x="62.5" y="167.862" fill="#27282D" width="125" height="82.138"/>
</g>
<g id="Default">
	<path d="M62.5,250V62.5h125V250h-7.813v-78.125H70.312V250H62.5z M70.312,109.375v54.688h109.375v-93.75H70.312V109.375z"/>
	<rect x="101.563" y="93.75" width="15.625" height="31.25"/>
	<rect x="156.25" y="93.75" width="15.625" height="31.25"/>
	<path fill="#363A3D" d="M0,250V0h250v250H0z M125,1.281c-15.601,0-31.032,2.944-45.539,8.686
		c-15.717,6.223-29.989,15.597-41.942,27.549C25.565,49.469,16.19,63.741,9.968,79.459C4.224,93.965,1.281,109.397,1.281,125
		c0,15.601,2.943,31.032,8.686,45.539c6.222,15.718,15.596,29.989,27.549,41.942c11.953,11.954,26.225,21.328,41.943,27.551
		c14.507,5.743,29.939,8.687,45.541,8.687s31.033-2.943,45.54-8.686c15.717-6.222,29.989-15.596,41.941-27.549
		c11.954-11.953,21.329-26.225,27.552-41.943c5.743-14.507,8.687-29.939,8.687-45.541s-2.944-31.034-8.686-45.54
		c-6.223-15.716-15.597-29.988-27.549-41.942c-11.954-11.953-26.225-21.328-41.943-27.551C156.035,4.225,140.603,1.281,125,1.281z"
		/>
</g>
<g id="Layer_02">
	<path fill="#27282D" d="M125,101.563h7.813V85.938h46.875v46.875h-46.875v-23.437H125v23.437H78.125v-23.437H62.5V125h-7.812
		v-15.625v-7.813h23.437V85.938H125V101.563z M85.938,125h31.25V93.75h-31.25V125z M140.625,125h31.25V93.75h-31.25V125z"/>
</g>
</svg>
