<?xml version="1.0" encoding="utf-8"?>
<!DOCTYPE svg PUBLIC "-//W3C//DTD SVG 1.1//EN" "http://www.w3.org/Graphics/SVG/1.1/DTD/svg11.dtd">
<svg version="1.1" xmlns="http://www.w3.org/2000/svg" xmlns:xlink="http://www.w3.org/1999/xlink" x="0px" y="0px" width="500px"
	 height="100px" viewBox="0 0 500 100" enable-background="new 0 0 500 100" xml:space="preserve">
<g id="heart">
	<polygon fill="#FBCB07" points="443.1,76.419 443.1,70.718 437.4,70.718 437.4,65.018 431.699,65.018 431.699,59.317 
		425.999,59.317 425.999,53.617 420.298,53.617 420.298,47.916 414.598,47.916 414.598,30.813 420.298,30.813 420.298,25.112 
		437.4,25.112 437.4,30.813 443.1,30.813 443.1,36.514 448.801,36.514 448.801,30.813 454.501,30.813 454.501,25.112 
		471.603,25.112 471.603,30.813 477.303,30.813 477.303,47.916 471.603,47.916 471.603,53.617 465.902,53.617 465.902,59.317 
		460.202,59.317 460.202,65.018 454.501,65.018 454.501,70.718 448.801,70.718 448.801,76.419 	"/> 
</g>
<g id="Eyes">
	<rect x="448.801" y="42.215" fill="#FFFFFF" width="11.401" height="11.401"/>
	<rect x="431.699" y="42.215" fill="#FFFFFF" width="11.4" height="11.401"/>

	<rect x="437.4" y="42.215" fill="#000000" width="5.7" height="11.401">
		<animate
		attributeName="x"
		values="437.4; 431.4;  431.4;  431.4;  431.4;  431.4;  431.4;  431.4;   431.4; 431.4; 437.4; 437.4; 437.4; 437.4; 437.4; 437.4; 437.4; 437.4; 437.4; 437.4; 437.4; 437.4; 437.4; 437.4; 437.4; 437.4; 437.4; 437.4; 437.4; 437.4; 437.4; 437.4; 437.4; 437.4; 437.4; 437.4; 437.4; 437.4; 437.4; 437.4; 437.4; 437.4; 437.4; 437.4; 437.4; 437.4; 437.4; 437.4; 437.4; 437.4;"
		dur="8s"
		repeatCount="indefinite"
		/>
	</rect>

	<rect x="454.501" y="42.215" fill="#000000" width="5.7" height="11.401">
		<animate
		attributeName="x"
		values="454.501; 448.501; 448.501; 448.501; 448.501; 448.501; 448.501; 448.501;  448.501; 448.501; 454.501; 454.501; 454.501; 454.501; 454.501; 454.501; 454.501; 454.501; 454.501; 454.501; 454.501; 454.501; 454.501; 454.501; 454.501; 454.501; 454.501; 454.501; 454.501; 454.501; 454.501; 454.501; 454.501; 454.501; 454.501; 454.501; 454.501; 454.501; 454.501; 454.501; 454.501; 454.501; 454.501; 454.501; 454.501; 454.501; 454.501; 454.501; 454.501; 454.501;"
		dur="8s"
		repeatCount="indefinite"
		/>
	</rect>

</g>
<g id="Text" fill="#27282D" >
	<polygon  points="288.214,47.132 300.751,47.132 300.751,63.847 309.108,63.847 309.108,68.026 284.036,68.026 284.036,63.847 
		292.393,63.847 292.393,51.311 288.214,51.311 	"/>
	<rect  x="292.393" y="38.773" width="8.358" height="4.179"/>
	<path  d="M346.718,63.847V51.311h4.179v-4.179h20.894v4.179h4.179v8.358h-20.894v4.179h16.715v4.179h-20.894v-4.179H346.718z
		 M355.076,55.49h12.537v-4.179h-12.537V55.49z"/>
	<polygon  points="58.378,47.132 58.378,42.952 62.556,42.952 62.556,38.773 83.452,38.773 83.452,42.952 87.63,42.952 87.63,51.311 
		83.452,51.311 83.452,55.49 79.273,55.49 79.273,59.668 70.914,59.668 70.914,63.847 87.63,63.847 87.63,68.026 58.378,68.026 
		58.378,59.668 62.556,59.668 62.556,55.49 66.735,55.49 66.735,51.311 75.094,51.311 75.094,47.132 79.273,47.132 79.273,42.952 
		66.735,42.952 66.735,47.132 	"/>
	<polygon  points="29.126,38.773 54.199,38.773 54.199,42.952 50.021,42.952 50.021,47.132 45.842,47.132 45.842,51.311 
		50.021,51.311 50.021,55.49 54.199,55.49 54.199,63.847 50.021,63.847 50.021,68.026 29.126,68.026 29.126,63.847 24.948,63.847 
		24.948,59.668 33.305,59.668 33.305,63.847 45.842,63.847 45.842,55.49 33.305,55.49 33.305,51.311 37.484,51.311 37.484,47.132 
		41.663,47.132 41.663,42.952 29.126,42.952 	"/>
	<polygon  points="167.028,38.773 192.101,38.773 192.101,42.952 187.922,42.952 187.922,47.132 183.743,47.132 183.743,51.311 
		187.922,51.311 187.922,55.49 192.101,55.49 192.101,63.847 187.922,63.847 187.922,68.026 167.028,68.026 167.028,63.847 
		162.849,63.847 162.849,59.668 171.207,59.668 171.207,63.847 183.743,63.847 183.743,55.49 171.207,55.49 171.207,51.311 
		175.385,51.311 175.385,47.132 179.564,47.132 179.564,42.952 167.028,42.952 	"/>
	<polygon  points="196.281,47.132 196.281,42.952 200.458,42.952 200.458,38.773 221.353,38.773 221.353,42.952 225.532,42.952 
		225.532,51.311 221.353,51.311 221.353,55.49 217.174,55.49 217.174,59.668 208.817,59.668 208.817,63.847 225.532,63.847 
		225.532,68.026 196.281,68.026 196.281,59.668 200.458,59.668 200.458,55.49 204.638,55.49 204.638,51.311 212.996,51.311 
		212.996,47.132 217.174,47.132 217.174,42.952 204.638,42.952 204.638,47.132 	"/>
	<polygon  points="380.148,68.026 380.148,63.847 388.506,63.847 388.506,42.952 384.327,42.952 384.327,38.773 396.865,38.773 
		396.865,63.847 405.222,63.847 405.222,68.026 	"/>
	<path d="M250.604,73.205V48.132h25.074v4.179h4.179v8.358h-4.179v4.179h-16.716v8.357H250.604z M258.962,60.668h12.536v-8.358
		h-12.536V60.668z"/>
	<polygon  points="112.703,47.132 121.06,47.132 121.06,51.311 125.239,51.311 125.239,55.49 129.418,55.49 129.418,51.311 
		133.597,51.311 133.597,47.132 141.956,47.132 141.956,51.311 137.775,51.311 137.775,55.49 133.597,55.49 133.597,59.668 
		137.775,59.668 137.775,63.847 141.956,63.847 141.956,68.026 133.597,68.026 133.597,63.847 129.418,63.847 129.418,59.668 
		125.239,59.668 125.239,63.847 121.06,63.847 121.06,68.026 112.703,68.026 112.703,63.847 116.881,63.847 116.881,59.668 
		121.06,59.668 121.06,55.49 116.881,55.49 116.881,51.311 112.703,51.311 	"/>
	<polygon  points="313.287,47.132 321.645,47.132 321.645,51.311 325.823,51.311 325.823,55.49 330.003,55.49 330.003,51.311 
		334.182,51.311 334.182,47.132 342.54,47.132 342.54,51.311 338.361,51.311 338.361,55.49 334.182,55.49 334.182,59.668 
		338.361,59.668 338.361,63.847 342.54,63.847 342.54,68.026 334.182,68.026 334.182,63.847 330.003,63.847 330.003,59.668 
		325.823,59.668 325.823,63.847 321.645,63.847 321.645,68.026 313.287,68.026 313.287,63.847 317.466,63.847 317.466,59.668 
		321.645,59.668 321.645,55.49 317.466,55.49 317.466,51.311 313.287,51.311 	"/>
</g>
</svg>
