<svg xmlns="http://www.w3.org/2000/svg" width="1em" height="1em" viewBox="0 0 24 24" fill="currentColor">
    <path
        d="M8.095 23.177H.142v-.852a.71.71 0 0 1 .71-.71h.142v-.852a.71.71 0 0 1 .71-.71V7.415H.923L0 4.29h4.118V1.166h15.48V4.29H24l-.923 3.124h-.781v12.64a.71.71 0 0 1 .71.709v.852h.142a.71.71 0 0 1 .71.71v.852h-7.953v-.852a.71.71 0 0 1 .71-.71h.142v-.852c0-.343.245-.63.569-.696v-6.972h-.023a5.468 5.468 0 0 0-10.89 0H6.39v6.959h.143a.71.71 0 0 1 .71.709v.852h.142a.71.71 0 0 1 .71.71v.852Z" />
</svg>