<?xml version="1.0" encoding="utf-8"?>
<!-- Generator: Adobe Illustrator 16.0.0, SVG Export Plug-In . SVG Version: 6.00 Build 0)  -->
<!DOCTYPE svg PUBLIC "-//W3C//DTD SVG 1.1//EN" "http://www.w3.org/Graphics/SVG/1.1/DTD/svg11.dtd">
<svg version="1.1" id="Layer_01" xmlns="http://www.w3.org/2000/svg" xmlns:xlink="http://www.w3.org/1999/xlink" x="0px" y="0px"
	  viewBox="0 0 50 50" enable-background="new 0 0 50 50" xml:space="preserve">
<polygon fill="currentColor" points="126.377,35.333 126.377,48.159 76.643,48.159 76.643,2.005 126.377,2.005 126.377,15.068 
	106.112,15.068 106.112,21.823 102.734,21.823 102.734,15.068 82.469,15.068 82.469,35.333 102.734,35.333 102.734,25.33 
	106.112,25.33 106.112,35.333 "/>
<polygon fill="currentColor" points="13.129,13.419 13.129,1.839 24.709,1.839 24.709,7.629 18.919,7.629 18.919,13.419 "/>
<rect x="7.339" y="19.209" fill="currentColor" width="11.581" height="11.58"/>
<polygon fill="currentColor" points="13.129,48.159 13.129,36.579 24.709,36.579 24.709,42.369 18.919,42.369 18.919,48.159 "/>
<polygon fill="currentColor" points="24.709,7.629 30.499,7.629 30.499,1.839 36.289,1.839 36.289,13.419 24.709,13.419 "/>
<polygon fill="currentColor" points="24.709,19.209 30.499,19.209 30.499,25 36.289,25 36.289,19.209 42.079,19.209 42.079,30.789 
	24.709,30.789 "/>
<polygon fill="currentColor" points="24.709,42.369 30.499,42.369 30.499,36.579 36.289,36.579 36.289,48.159 24.709,48.159 "/>
<rect x="116.245" y="18.446" fill="currentColor" width="6.754" height="13.51"/>
<rect x="92.602" y="18.446" fill="currentColor" width="6.755" height="13.51"/>
</svg>
