<?xml version="1.0" encoding="utf-8"?>
<!-- Generator: Adobe Illustrator 16.0.0, SVG Export Plug-In . SVG Version: 6.00 Build 0)  -->
<!DOCTYPE svg PUBLIC "-//W3C//DTD SVG 1.1//EN" "http://www.w3.org/Graphics/SVG/1.1/DTD/svg11.dtd">
<svg version="1.1" xmlns="http://www.w3.org/2000/svg" xmlns:xlink="http://www.w3.org/1999/xlink" x="0px" y="0px" viewBox="0 0 150 150" enable-background="new 0 0 150 150" xml:space="preserve">
<g id="Layer_01">
	<polygon fill="#FFCCFA" points="18.676,67.095 18.676,24.794 137.117,24.794 137.117,126.315 18.676,126.315 	"/>
</g>
<g id="Layer_03">
	<rect x="94.817" y="50.174" fill="#FFFFFF" width="16.92" height="33.84"/>
	<rect x="35.596" y="50.174" fill="#FFFFFF" width="16.92" height="33.84"/>
</g>
<g id="Default">
	<rect x="35.596" y="100.936" width="84.601" height="8.46"/>
	<rect x="111.738" y="50.174" width="16.92" height="33.84"/>
	<rect x="52.517" y="50.174" width="16.92" height="33.84"/>
	<path d="M10.217,67.095V16.333h135.361v118.443H10.217V67.095z M18.676,67.095v59.22h118.441V24.794H18.676V67.095z"/>
</g>
<g id="Layer_02">
	<path fill="#FF2165" d="M77.897,58.635h8.46v-16.92h50.76v50.76h-50.76v-25.38h-8.46v25.38H27.136v-25.38H10.217v16.919H1.756
		V67.095v-8.46h25.38v-16.92h50.761V58.635z M35.596,84.015h33.841v-33.84H35.596V84.015z M94.817,84.015h33.841v-33.84H94.817
		V84.015z"/>
</g>
</svg>
