<?xml version="1.0" encoding="utf-8"?>
<!-- Generator: Adobe Illustrator 16.0.0, SVG Export Plug-In . SVG Version: 6.00 Build 0)  -->
<!DOCTYPE svg PUBLIC "-//W3C//DTD SVG 1.1//EN" "http://www.w3.org/Graphics/SVG/1.1/DTD/svg11.dtd">
<svg version="1.1" xmlns="http://www.w3.org/2000/svg" xmlns:xlink="http://www.w3.org/1999/xlink" x="0px" y="0px" width="150px"
	 height="150px" viewBox="0 0 150 150" enable-background="new 0 0 150 150" xml:space="preserve">
<g id="Layer_04">
	<rect x="10.138" y="24.889" fill="#FFFFFF" width="129.631" height="103.705"/>
</g>
<g id="Layer_09">
	<path fill="#1F1D29" d="M3.657,135.075V18.408H146.25v116.667H3.657z M16.62,122.112h116.667V31.371H16.62V122.112z"/>
</g>
<g id="Layer_01">
	<rect x="23.102" y="37.852" fill="#E3E3E3" width="103.704" height="77.779"/>
</g>
<g id="Layer_05">
	<rect x="87.917" y="63.188" fill="#FFFFFF" width="12.963" height="27.106"/>
	<rect x="42.546" y="63.188" fill="#FFFFFF" width="12.962" height="27.106"/>
</g>
<g id="Default">
	<rect x="100.88" y="63.188" fill="#1F1C1C" width="12.963" height="27.106"/>
	<rect x="55.509" y="63.188" fill="#1F1C1C" width="12.963" height="27.106"/>
</g>
<g id="Layer_02">
	<path fill="#FF2165" d="M74.954,70.26h6.481V57.297h38.889v38.889H81.435V76.741h-6.481v19.444H36.064V76.741H23.102v12.963H16.62
		V76.741V70.26h19.444V57.297h38.889V70.26z M42.546,89.705h25.925V63.778H42.546V89.705z M87.917,89.705h25.926V63.778H87.917
		V89.705z"/>
</g>
</svg>
