<?xml version="1.0" encoding="utf-8"?>
<!-- Generator: Adobe Illustrator 16.0.0, SVG Export Plug-In . SVG Version: 6.00 Build 0)  -->
<!DOCTYPE svg PUBLIC "-//W3C//DTD SVG 1.1//EN" "http://www.w3.org/Graphics/SVG/1.1/DTD/svg11.dtd">
<svg version="1.1" id="Layer_01" xmlns="http://www.w3.org/2000/svg" xmlns:xlink="http://www.w3.org/1999/xlink" x="0px" y="0px"
	 viewBox="0 0 50 50" enable-background="new 0 0 50 50" xml:space="preserve">
<polygon fill="currentColor" points="49.867,35.333 49.867,48.159 0.133,48.159 0.133,2.005 49.867,2.005 49.867,15.068 29.602,15.068 
	29.602,21.823 26.224,21.823 26.224,15.068 5.959,15.068 5.959,35.333 26.224,35.333 26.224,25.33 29.602,25.33 29.602,35.333 "/>
<polygon fill="currentColor" points="-63.248,13.419 -63.248,1.839 -51.668,1.839 -51.668,7.629 -57.458,7.629 -57.458,13.419 "/>
<rect x="-69.038" y="19.209" fill="currentColor" width="11.581" height="11.58"/>
<polygon fill="currentColor" points="-63.248,48.159 -63.248,36.579 -51.668,36.579 -51.668,42.369 -57.458,42.369 -57.458,48.159 "/>
<polygon fill="currentColor" points="-51.668,7.629 -45.878,7.629 -45.878,1.839 -40.088,1.839 -40.088,13.419 -51.668,13.419 "/>
<polygon fill="currentColor" points="-51.668,19.209 -45.878,19.209 -45.878,25 -40.088,25 -40.088,19.209 -34.298,19.209 
	-34.298,30.789 -51.668,30.789 "/>
<polygon fill="currentColor" points="-51.668,42.369 -45.878,42.369 -45.878,36.579 -40.088,36.579 -40.088,48.159 -51.668,48.159 "/>
<rect x="39.735" y="18.446" fill="currentColor" width="6.754" height="13.51"/>
<rect x="16.092" y="18.446" fill="currentColor" width="6.755" height="13.51"/>
</svg>
