<?xml version="1.0" encoding="utf-8"?>
<!-- Generator: Adobe Illustrator 16.0.0, SVG Export Plug-In . SVG Version: 6.00 Build 0)  -->
<!DOCTYPE svg PUBLIC "-//W3C//DTD SVG 1.1//EN" "http://www.w3.org/Graphics/SVG/1.1/DTD/svg11.dtd">
<svg version="1.1" xmlns="http://www.w3.org/2000/svg" xmlns:xlink="http://www.w3.org/1999/xlink" x="0px" y="0px" width="500px"
	 height="500px" viewBox="0 0 500 500" enable-background="new 0 0 500 500" xml:space="preserve">

<g id="Background" fill="#D5D7E1">
	<rect x="-0.001"  width="500.002" height="500"/>
</g>

<g id="Skin" fill="#FFCCFA">
	<polygon  points="140.625,218.751 140.625,140.626 359.376,140.626 359.376,328.125 140.625,328.125 	"/>
</g>

<g id="Default">
	<path d="M125.001,218.751V125h250v218.751h-250V218.751z M140.625,218.751v109.374h218.751v-187.5H140.625V218.751z"/>
	<rect x="125.001" y="343.751" width="15.624" height="156.249"/>
	<rect x="312.501" y="187.5" width="31.25" height="62.5"/>
	<rect x="203.125" y="187.5" width="31.25" height="62.5"/>
	<rect x="328.125" y="390.626" width="15.626" height="109.374"/>
	<rect x="156.25" y="390.626" width="15.626" height="109.374"/>
	<rect x="359.376" y="343.751" width="15.625" height="156.249"/>
	<rect x="171.876" y="281.251" width="156.249" height="15.626"/>
</g>

<g id="Glasses" fill="#FF2165">
	<path  d="M250.001,203.125h15.624v-31.25h93.751v93.75h-93.751v-46.875h-15.624v46.875H156.25v-46.875h-31.249V250
		h-15.625v-31.249v-15.626h46.874v-31.25h93.751V203.125z M171.876,250h62.5v-62.5h-62.5V250z M281.251,250h62.5v-62.5h-62.5V250z"
		/>
</g>

<g id="WhiteEyes" fill="#FFFFFF">
	<rect x="171.876" y="187.5" width="31.25" height="62.5"/>
	<rect x="281.251" y="187.5"  width="31.25" height="62.5"/>
</g>
<g id="Body" fill="#27282D">
	<polygon  points="140.625,500 140.625,343.751 359.376,343.751 359.376,500 343.75,500 343.75,390.626 
		328.125,390.626 328.125,500 171.876,500 171.876,390.626 156.25,390.626 156.25,500 	"/>
</g>

</svg>
