<svg width="374" height="90" viewBox="0 0 374 90" fill="none" xmlns="http://www.w3.org/2000/svg">
<path d="M16 53.2916H24.2917V61.5833H16V53.2916Z" fill="#F3322C" stroke="#363636"/>
<path d="M16 45H24.2917V53.2917H16V45Z" fill="#F3322C" stroke="#363636"/>
<path d="M16 36.7084H24.2917V45H16V36.7084Z" fill="#F3322C" stroke="#363636"/>
<path d="M24.2917 36.7084H32.5834V45H24.2917V36.7084Z" fill="#F3322C" stroke="#363636"/>
<path d="M32.5833 36.7084H40.875V45H32.5833V36.7084Z" fill="#F3322C" stroke="#363636"/>
<path d="M40.875 36.7084H49.1667V45H40.875V36.7084Z" fill="#F3322C" stroke="#363636"/>
<path d="M40.875 28.4166H49.1667V36.7083H40.875V28.4166Z" fill="#F3322C" stroke="#363636"/>
<path d="M40.875 20.125H49.1667V28.4167H40.875V20.125Z" fill="#F3322C" stroke="#363636"/>
<path d="M49.1666 20.125H57.4583V28.4167H49.1666V20.125Z" fill="#F3322C" stroke="#363636"/>
<path d="M57.4583 20.125H65.75V28.4167H57.4583V20.125Z" fill="#F3322C" stroke="#363636"/>
<path d="M65.75 20.125H74.0417V28.4167H65.75V20.125Z" fill="#F3322C" stroke="#363636"/>
<path d="M74.0416 20.125H82.3333V28.4167H74.0416V20.125Z" fill="#F3322C" stroke="#363636"/>
<path d="M82.3333 20.125H90.625V28.4167H82.3333V20.125Z" fill="#F3322C" stroke="#363636"/>
<path d="M82.3333 28.4166H90.625V36.7083H82.3333V28.4166Z" fill="#F3322C" stroke="#363636"/>
<path d="M82.3333 36.7084H90.625V45H82.3333V36.7084Z" fill="#F3322C" stroke="#363636"/>
<path d="M82.3333 45H90.625V53.2917H82.3333V45Z" fill="#F3322C" stroke="#363636"/>
<path d="M82.3333 53.2916H90.625V61.5833H82.3333V53.2916Z" fill="#F3322C" stroke="#363636"/>
<path d="M82.3333 61.5834H90.625V69.875H82.3333V61.5834Z" fill="#F3322C" stroke="#363636"/>
<path d="M74.0416 61.5834H82.3333V69.875H74.0416V61.5834Z" fill="#F3322C" stroke="#363636"/>
<path d="M65.75 61.5834H74.0417V69.875H65.75V61.5834Z" fill="#F3322C" stroke="#363636"/>
<path d="M57.4583 61.5834H65.75V69.875H57.4583V61.5834Z" fill="#F3322C" stroke="#363636"/>
<path d="M49.1666 61.5834H57.4583V69.875H49.1666V61.5834Z" fill="#F3322C" stroke="#363636"/>
<path d="M40.875 61.5834H49.1667V69.875H40.875V61.5834Z" fill="#F3322C" stroke="#363636"/>
<path d="M40.875 53.2916H49.1667V61.5833H40.875V53.2916Z" fill="#F3322C" stroke="#363636"/>
<path d="M40.875 45H49.1667V53.2917H40.875V45Z" fill="#F3322C" stroke="#363636"/>
<path d="M90.625 36.7084H98.9167V45H90.625V36.7084Z" fill="#F3322C" stroke="#363636"/>
<path d="M98.9166 20.125H107.208V28.4167H98.9166V20.125Z" fill="#F3322C" stroke="#363636"/>
<path d="M98.9166 28.4166H107.208V36.7083H98.9166V28.4166Z" fill="#F3322C" stroke="#363636"/>
<path d="M98.9166 36.7084H107.208V45H98.9166V36.7084Z" fill="#F3322C" stroke="#363636"/>
<path d="M98.9166 45H107.208V53.2917H98.9166V45Z" fill="#F3322C" stroke="#363636"/>
<path d="M98.9166 53.2916H107.208V61.5833H98.9166V53.2916Z" fill="#F3322C" stroke="#363636"/>
<path d="M98.9166 61.5834H107.208V69.875H98.9166V61.5834Z" fill="#F3322C" stroke="#363636"/>
<path d="M107.208 61.5834H115.5V69.875H107.208V61.5834Z" fill="#F3322C" stroke="#363636"/>
<path d="M115.5 61.5834H123.792V69.875H115.5V61.5834Z" fill="#F3322C" stroke="#363636"/>
<path d="M123.792 61.5834H132.083V69.875H123.792V61.5834Z" fill="#F3322C" stroke="#363636"/>
<path d="M132.083 61.5834H140.375V69.875H132.083V61.5834Z" fill="#F3322C" stroke="#363636"/>
<path d="M140.375 61.5834H148.667V69.875H140.375V61.5834Z" fill="#F3322C" stroke="#363636"/>
<path d="M140.375 53.2916H148.667V61.5833H140.375V53.2916Z" fill="#F3322C" stroke="#363636"/>
<path d="M140.375 45H148.667V53.2917H140.375V45Z" fill="#F3322C" stroke="#363636"/>
<path d="M140.375 36.7084H148.667V45H140.375V36.7084Z" fill="#F3322C" stroke="#363636"/>
<path d="M140.375 28.4166H148.667V36.7083H140.375V28.4166Z" fill="#F3322C" stroke="#363636"/>
<path d="M140.375 20.125H148.667V28.4167H140.375V20.125Z" fill="#F3322C" stroke="#363636"/>
<path d="M132.083 20.125H140.375V28.4167H132.083V20.125Z" fill="#F3322C" stroke="#363636"/>
<path d="M123.792 20.125H132.083V28.4167H123.792V20.125Z" fill="#F3322C" stroke="#363636"/>
<path d="M115.5 20.125H123.792V28.4167H115.5V20.125Z" fill="#F3322C" stroke="#363636"/>
<path d="M107.208 20.125H115.5V28.4167H107.208V20.125Z" fill="#F3322C" stroke="#363636"/>
<path d="M74.0416 28.4166H82.3333V36.7083H74.0416V28.4166Z" fill="black" stroke="#363636"/>
<path d="M65.75 28.4166H74.0417V36.7083H65.75V28.4166Z" fill="black" stroke="#363636"/>
<path d="M65.75 36.7084H74.0417V45H65.75V36.7084Z" fill="black" stroke="#363636"/>
<path d="M65.75 45H74.0417V53.2917H65.75V45Z" fill="black" stroke="#363636"/>
<path d="M65.75 53.2916H74.0417V61.5833H65.75V53.2916Z" fill="black" stroke="#363636"/>
<path d="M74.0416 53.2916H82.3333V61.5833H74.0416V53.2916Z" fill="black" stroke="#363636"/>
<path d="M74.0416 45H82.3333V53.2917H74.0416V45Z" fill="black" stroke="#363636"/>
<path d="M74.0416 36.7084H82.3333V45H74.0416V36.7084Z" fill="black" stroke="#363636"/>
<path d="M123.792 28.4166H132.083V36.7083H123.792V28.4166Z" fill="black" stroke="#363636"/>
<path d="M132.083 28.4166H140.375V36.7083H132.083V28.4166Z" fill="black" stroke="#363636"/>
<path d="M123.792 36.7084H132.083V45H123.792V36.7084Z" fill="black" stroke="#363636"/>
<path d="M132.083 36.7084H140.375V45H132.083V36.7084Z" fill="black" stroke="#363636"/>
<path d="M123.792 45H132.083V53.2917H123.792V45Z" fill="black" stroke="#363636"/>
<path d="M123.792 53.2916H132.083V61.5833H123.792V53.2916Z" fill="black" stroke="#363636"/>
<path d="M132.083 53.2916H140.375V61.5833H132.083V53.2916Z" fill="black" stroke="#363636"/>
<path d="M132.083 45H140.375V53.2917H132.083V45Z" fill="black" stroke="#363636"/>
<path d="M49.1666 36.7084H57.4583V45H49.1666V36.7084Z" fill="white" stroke="#363636"/>
<path d="M49.1666 28.4166H57.4583V36.7083H49.1666V28.4166Z" fill="white" stroke="#363636"/>
<path d="M57.4583 28.4166H65.75V36.7083H57.4583V28.4166Z" fill="white" stroke="#363636"/>
<path d="M57.4583 36.7084H65.75V45H57.4583V36.7084Z" fill="white" stroke="#363636"/>
<path d="M49.1666 45H57.4583V53.2917H49.1666V45Z" fill="white" stroke="#363636"/>
<path d="M57.4583 45H65.75V53.2917H57.4583V45Z" fill="white" stroke="#363636"/>
<path d="M49.1666 53.2916H57.4583V61.5833H49.1666V53.2916Z" fill="white" stroke="#363636"/>
<path d="M57.4583 53.2916H65.75V61.5833H57.4583V53.2916Z" fill="white" stroke="#363636"/>
<path d="M107.208 36.7084H115.5V45H107.208V36.7084Z" fill="white" stroke="#363636"/>
<path d="M107.208 28.4166H115.5V36.7083H107.208V28.4166Z" fill="white" stroke="#363636"/>
<path d="M115.5 28.4166H123.792V36.7083H115.5V28.4166Z" fill="white" stroke="#363636"/>
<path d="M115.5 36.7084H123.792V45H115.5V36.7084Z" fill="white" stroke="#363636"/>
<path d="M107.208 45H115.5V53.2917H107.208V45Z" fill="white" stroke="#363636"/>
<path d="M115.5 45H123.792V53.2917H115.5V45Z" fill="white" stroke="#363636"/>
<path d="M107.208 53.2916H115.5V61.5833H107.208V53.2916Z" fill="white" stroke="#363636"/>
<path d="M115.5 53.2916H123.792V61.5833H115.5V53.2916Z" fill="white" stroke="#363636"/>
<path d="M164.667 41.875V20H170.917V23.125H174.042V26.25H177.167V29.375H180.292V20H186.542V41.875H180.292V35.625H177.167V32.5H174.042V29.375H170.917V41.875H164.667ZM192.792 41.875V38.75H189.667V29.375H192.792V26.25H208.417V29.375H211.542V38.75H208.417V41.875H192.792ZM195.917 38.75H205.292V29.375H195.917V38.75ZM217.792 41.875V38.75H214.667V26.25H220.917V38.75H230.292V26.25H236.542V41.875H217.792ZM239.667 41.875V26.25H258.417V29.375H261.542V41.875H255.292V29.375H245.917V41.875H239.667ZM267.792 41.875V38.75H264.667V29.375H267.792V26.25H280.292V20H286.542V41.875H267.792ZM270.917 38.75H280.292V29.375H270.917V38.75ZM299.042 29.375H302.167V32.5H299.042V41.875H292.792V26.25H299.042V29.375ZM311.542 26.25V29.375H302.167V26.25H311.542ZM317.792 45V41.875H330.292V38.75H317.792V35.625H314.667V26.25H320.917V35.625H330.292V26.25H336.542V41.875H333.417V45H317.792ZM167.792 66.875V63.75H164.667V60.625H170.917V63.75H180.292V57.5H167.792V54.375H164.667V48.125H167.792V45H183.417V48.125H186.542V51.25H180.292V48.125H170.917V54.375H183.417V57.5H186.542V63.75H183.417V66.875H167.792ZM199.042 66.875V54.375H192.792V51.25H199.042V45H205.292V51.25H211.542V54.375H205.292V66.875H199.042ZM217.792 66.875V63.75H214.667V51.25H220.917V63.75H230.292V51.25H236.542V66.875H217.792ZM242.792 66.875V63.75H239.667V54.375H242.792V51.25H255.292V45H261.542V66.875H242.792ZM245.917 63.75H255.292V54.375H245.917V63.75ZM274.042 48.125V45H280.292V48.125H274.042ZM267.792 66.875V63.75H274.042V54.375H270.917V51.25H280.292V63.75H286.542V66.875H267.792ZM292.792 66.875V63.75H289.667V54.375H292.792V51.25H308.417V54.375H311.542V63.75H308.417V66.875H292.792ZM295.917 63.75H305.292V54.375H295.917V63.75Z" fill="white"/>
<path d="M164.667 41.875H164.167V42.375H164.667V41.875ZM164.667 20V19.5H164.167V20H164.667ZM170.917 20H171.417V19.5H170.917V20ZM170.917 23.125H170.417V23.625H170.917V23.125ZM174.042 23.125H174.542V22.625H174.042V23.125ZM174.042 26.25H173.542V26.75H174.042V26.25ZM177.167 26.25H177.667V25.75H177.167V26.25ZM177.167 29.375H176.667V29.875H177.167V29.375ZM180.292 29.375V29.875H180.792V29.375H180.292ZM180.292 20V19.5H179.792V20H180.292ZM186.542 20H187.042V19.5H186.542V20ZM186.542 41.875V42.375H187.042V41.875H186.542ZM180.292 41.875H179.792V42.375H180.292V41.875ZM180.292 35.625H180.792V35.125H180.292V35.625ZM177.167 35.625H176.667V36.125H177.167V35.625ZM177.167 32.5H177.667V32H177.167V32.5ZM174.042 32.5H173.542V33H174.042V32.5ZM174.042 29.375H174.542V28.875H174.042V29.375ZM170.917 29.375V28.875H170.417V29.375H170.917ZM170.917 41.875V42.375H171.417V41.875H170.917ZM165.167 41.875V20H164.167V41.875H165.167ZM164.667 20.5H170.917V19.5H164.667V20.5ZM170.417 20V23.125H171.417V20H170.417ZM170.917 23.625H174.042V22.625H170.917V23.625ZM173.542 23.125V26.25H174.542V23.125H173.542ZM174.042 26.75H177.167V25.75H174.042V26.75ZM176.667 26.25V29.375H177.667V26.25H176.667ZM177.167 29.875H180.292V28.875H177.167V29.875ZM180.792 29.375V20H179.792V29.375H180.792ZM180.292 20.5H186.542V19.5H180.292V20.5ZM186.042 20V41.875H187.042V20H186.042ZM186.542 41.375H180.292V42.375H186.542V41.375ZM180.792 41.875V35.625H179.792V41.875H180.792ZM180.292 35.125H177.167V36.125H180.292V35.125ZM177.667 35.625V32.5H176.667V35.625H177.667ZM177.167 32H174.042V33H177.167V32ZM174.542 32.5V29.375H173.542V32.5H174.542ZM174.042 28.875H170.917V29.875H174.042V28.875ZM170.417 29.375V41.875H171.417V29.375H170.417ZM170.917 41.375H164.667V42.375H170.917V41.375ZM192.792 41.875H192.292V42.375H192.792V41.875ZM192.792 38.75H193.292V38.25H192.792V38.75ZM189.667 38.75H189.167V39.25H189.667V38.75ZM189.667 29.375V28.875H189.167V29.375H189.667ZM192.792 29.375V29.875H193.292V29.375H192.792ZM192.792 26.25V25.75H192.292V26.25H192.792ZM208.417 26.25H208.917V25.75H208.417V26.25ZM208.417 29.375H207.917V29.875H208.417V29.375ZM211.542 29.375H212.042V28.875H211.542V29.375ZM211.542 38.75V39.25H212.042V38.75H211.542ZM208.417 38.75V38.25H207.917V38.75H208.417ZM208.417 41.875V42.375H208.917V41.875H208.417ZM195.917 38.75H195.417V39.25H195.917V38.75ZM205.292 38.75V39.25H205.792V38.75H205.292ZM205.292 29.375H205.792V28.875H205.292V29.375ZM195.917 29.375V28.875H195.417V29.375H195.917ZM193.292 41.875V38.75H192.292V41.875H193.292ZM192.792 38.25H189.667V39.25H192.792V38.25ZM190.167 38.75V29.375H189.167V38.75H190.167ZM189.667 29.875H192.792V28.875H189.667V29.875ZM193.292 29.375V26.25H192.292V29.375H193.292ZM192.792 26.75H208.417V25.75H192.792V26.75ZM207.917 26.25V29.375H208.917V26.25H207.917ZM208.417 29.875H211.542V28.875H208.417V29.875ZM211.042 29.375V38.75H212.042V29.375H211.042ZM211.542 38.25H208.417V39.25H211.542V38.25ZM207.917 38.75V41.875H208.917V38.75H207.917ZM208.417 41.375H192.792V42.375H208.417V41.375ZM195.917 39.25H205.292V38.25H195.917V39.25ZM205.792 38.75V29.375H204.792V38.75H205.792ZM205.292 28.875H195.917V29.875H205.292V28.875ZM195.417 29.375V38.75H196.417V29.375H195.417ZM217.792 41.875H217.292V42.375H217.792V41.875ZM217.792 38.75H218.292V38.25H217.792V38.75ZM214.667 38.75H214.167V39.25H214.667V38.75ZM214.667 26.25V25.75H214.167V26.25H214.667ZM220.917 26.25H221.417V25.75H220.917V26.25ZM220.917 38.75H220.417V39.25H220.917V38.75ZM230.292 38.75V39.25H230.792V38.75H230.292ZM230.292 26.25V25.75H229.792V26.25H230.292ZM236.542 26.25H237.042V25.75H236.542V26.25ZM236.542 41.875V42.375H237.042V41.875H236.542ZM218.292 41.875V38.75H217.292V41.875H218.292ZM217.792 38.25H214.667V39.25H217.792V38.25ZM215.167 38.75V26.25H214.167V38.75H215.167ZM214.667 26.75H220.917V25.75H214.667V26.75ZM220.417 26.25V38.75H221.417V26.25H220.417ZM220.917 39.25H230.292V38.25H220.917V39.25ZM230.792 38.75V26.25H229.792V38.75H230.792ZM230.292 26.75H236.542V25.75H230.292V26.75ZM236.042 26.25V41.875H237.042V26.25H236.042ZM236.542 41.375H217.792V42.375H236.542V41.375ZM239.667 41.875H239.167V42.375H239.667V41.875ZM239.667 26.25V25.75H239.167V26.25H239.667ZM258.417 26.25H258.917V25.75H258.417V26.25ZM258.417 29.375H257.917V29.875H258.417V29.375ZM261.542 29.375H262.042V28.875H261.542V29.375ZM261.542 41.875V42.375H262.042V41.875H261.542ZM255.292 41.875H254.792V42.375H255.292V41.875ZM255.292 29.375H255.792V28.875H255.292V29.375ZM245.917 29.375V28.875H245.417V29.375H245.917ZM245.917 41.875V42.375H246.417V41.875H245.917ZM240.167 41.875V26.25H239.167V41.875H240.167ZM239.667 26.75H258.417V25.75H239.667V26.75ZM257.917 26.25V29.375H258.917V26.25H257.917ZM258.417 29.875H261.542V28.875H258.417V29.875ZM261.042 29.375V41.875H262.042V29.375H261.042ZM261.542 41.375H255.292V42.375H261.542V41.375ZM255.792 41.875V29.375H254.792V41.875H255.792ZM255.292 28.875H245.917V29.875H255.292V28.875ZM245.417 29.375V41.875H246.417V29.375H245.417ZM245.917 41.375H239.667V42.375H245.917V41.375ZM267.792 41.875H267.292V42.375H267.792V41.875ZM267.792 38.75H268.292V38.25H267.792V38.75ZM264.667 38.75H264.167V39.25H264.667V38.75ZM264.667 29.375V28.875H264.167V29.375H264.667ZM267.792 29.375V29.875H268.292V29.375H267.792ZM267.792 26.25V25.75H267.292V26.25H267.792ZM280.292 26.25V26.75H280.792V26.25H280.292ZM280.292 20V19.5H279.792V20H280.292ZM286.542 20H287.042V19.5H286.542V20ZM286.542 41.875V42.375H287.042V41.875H286.542ZM270.917 38.75H270.417V39.25H270.917V38.75ZM280.292 38.75V39.25H280.792V38.75H280.292ZM280.292 29.375H280.792V28.875H280.292V29.375ZM270.917 29.375V28.875H270.417V29.375H270.917ZM268.292 41.875V38.75H267.292V41.875H268.292ZM267.792 38.25H264.667V39.25H267.792V38.25ZM265.167 38.75V29.375H264.167V38.75H265.167ZM264.667 29.875H267.792V28.875H264.667V29.875ZM268.292 29.375V26.25H267.292V29.375H268.292ZM267.792 26.75H280.292V25.75H267.792V26.75ZM280.792 26.25V20H279.792V26.25H280.792ZM280.292 20.5H286.542V19.5H280.292V20.5ZM286.042 20V41.875H287.042V20H286.042ZM286.542 41.375H267.792V42.375H286.542V41.375ZM270.917 39.25H280.292V38.25H270.917V39.25ZM280.792 38.75V29.375H279.792V38.75H280.792ZM280.292 28.875H270.917V29.875H280.292V28.875ZM270.417 29.375V38.75H271.417V29.375H270.417ZM299.042 29.375H298.542V29.875H299.042V29.375ZM302.167 29.375H302.667V28.875H302.167V29.375ZM302.167 32.5V33H302.667V32.5H302.167ZM299.042 32.5V32H298.542V32.5H299.042ZM299.042 41.875V42.375H299.542V41.875H299.042ZM292.792 41.875H292.292V42.375H292.792V41.875ZM292.792 26.25V25.75H292.292V26.25H292.792ZM299.042 26.25H299.542V25.75H299.042V26.25ZM311.542 26.25H312.042V25.75H311.542V26.25ZM311.542 29.375V29.875H312.042V29.375H311.542ZM302.167 29.375H301.667V29.875H302.167V29.375ZM302.167 26.25V25.75H301.667V26.25H302.167ZM299.042 29.875H302.167V28.875H299.042V29.875ZM301.667 29.375V32.5H302.667V29.375H301.667ZM302.167 32H299.042V33H302.167V32ZM298.542 32.5V41.875H299.542V32.5H298.542ZM299.042 41.375H292.792V42.375H299.042V41.375ZM293.292 41.875V26.25H292.292V41.875H293.292ZM292.792 26.75H299.042V25.75H292.792V26.75ZM298.542 26.25V29.375H299.542V26.25H298.542ZM311.042 26.25V29.375H312.042V26.25H311.042ZM311.542 28.875H302.167V29.875H311.542V28.875ZM302.667 29.375V26.25H301.667V29.375H302.667ZM302.167 26.75H311.542V25.75H302.167V26.75ZM317.792 45H317.292V45.5H317.792V45ZM317.792 41.875V41.375H317.292V41.875H317.792ZM330.292 41.875V42.375H330.792V41.875H330.292ZM330.292 38.75H330.792V38.25H330.292V38.75ZM317.792 38.75H317.292V39.25H317.792V38.75ZM317.792 35.625H318.292V35.125H317.792V35.625ZM314.667 35.625H314.167V36.125H314.667V35.625ZM314.667 26.25V25.75H314.167V26.25H314.667ZM320.917 26.25H321.417V25.75H320.917V26.25ZM320.917 35.625H320.417V36.125H320.917V35.625ZM330.292 35.625V36.125H330.792V35.625H330.292ZM330.292 26.25V25.75H329.792V26.25H330.292ZM336.542 26.25H337.042V25.75H336.542V26.25ZM336.542 41.875V42.375H337.042V41.875H336.542ZM333.417 41.875V41.375H332.917V41.875H333.417ZM333.417 45V45.5H333.917V45H333.417ZM318.292 45V41.875H317.292V45H318.292ZM317.792 42.375H330.292V41.375H317.792V42.375ZM330.792 41.875V38.75H329.792V41.875H330.792ZM330.292 38.25H317.792V39.25H330.292V38.25ZM318.292 38.75V35.625H317.292V38.75H318.292ZM317.792 35.125H314.667V36.125H317.792V35.125ZM315.167 35.625V26.25H314.167V35.625H315.167ZM314.667 26.75H320.917V25.75H314.667V26.75ZM320.417 26.25V35.625H321.417V26.25H320.417ZM320.917 36.125H330.292V35.125H320.917V36.125ZM330.792 35.625V26.25H329.792V35.625H330.792ZM330.292 26.75H336.542V25.75H330.292V26.75ZM336.042 26.25V41.875H337.042V26.25H336.042ZM336.542 41.375H333.417V42.375H336.542V41.375ZM332.917 41.875V45H333.917V41.875H332.917ZM333.417 44.5H317.792V45.5H333.417V44.5ZM167.792 66.875H167.292V67.375H167.792V66.875ZM167.792 63.75H168.292V63.25H167.792V63.75ZM164.667 63.75H164.167V64.25H164.667V63.75ZM164.667 60.625V60.125H164.167V60.625H164.667ZM170.917 60.625H171.417V60.125H170.917V60.625ZM170.917 63.75H170.417V64.25H170.917V63.75ZM180.292 63.75V64.25H180.792V63.75H180.292ZM180.292 57.5H180.792V57H180.292V57.5ZM167.792 57.5H167.292V58H167.792V57.5ZM167.792 54.375H168.292V53.875H167.792V54.375ZM164.667 54.375H164.167V54.875H164.667V54.375ZM164.667 48.125V47.625H164.167V48.125H164.667ZM167.792 48.125V48.625H168.292V48.125H167.792ZM167.792 45V44.5H167.292V45H167.792ZM183.417 45H183.917V44.5H183.417V45ZM183.417 48.125H182.917V48.625H183.417V48.125ZM186.542 48.125H187.042V47.625H186.542V48.125ZM186.542 51.25V51.75H187.042V51.25H186.542ZM180.292 51.25H179.792V51.75H180.292V51.25ZM180.292 48.125H180.792V47.625H180.292V48.125ZM170.917 48.125V47.625H170.417V48.125H170.917ZM170.917 54.375H170.417V54.875H170.917V54.375ZM183.417 54.375H183.917V53.875H183.417V54.375ZM183.417 57.5H182.917V58H183.417V57.5ZM186.542 57.5H187.042V57H186.542V57.5ZM186.542 63.75V64.25H187.042V63.75H186.542ZM183.417 63.75V63.25H182.917V63.75H183.417ZM183.417 66.875V67.375H183.917V66.875H183.417ZM168.292 66.875V63.75H167.292V66.875H168.292ZM167.792 63.25H164.667V64.25H167.792V63.25ZM165.167 63.75V60.625H164.167V63.75H165.167ZM164.667 61.125H170.917V60.125H164.667V61.125ZM170.417 60.625V63.75H171.417V60.625H170.417ZM170.917 64.25H180.292V63.25H170.917V64.25ZM180.792 63.75V57.5H179.792V63.75H180.792ZM180.292 57H167.792V58H180.292V57ZM168.292 57.5V54.375H167.292V57.5H168.292ZM167.792 53.875H164.667V54.875H167.792V53.875ZM165.167 54.375V48.125H164.167V54.375H165.167ZM164.667 48.625H167.792V47.625H164.667V48.625ZM168.292 48.125V45H167.292V48.125H168.292ZM167.792 45.5H183.417V44.5H167.792V45.5ZM182.917 45V48.125H183.917V45H182.917ZM183.417 48.625H186.542V47.625H183.417V48.625ZM186.042 48.125V51.25H187.042V48.125H186.042ZM186.542 50.75H180.292V51.75H186.542V50.75ZM180.792 51.25V48.125H179.792V51.25H180.792ZM180.292 47.625H170.917V48.625H180.292V47.625ZM170.417 48.125V54.375H171.417V48.125H170.417ZM170.917 54.875H183.417V53.875H170.917V54.875ZM182.917 54.375V57.5H183.917V54.375H182.917ZM183.417 58H186.542V57H183.417V58ZM186.042 57.5V63.75H187.042V57.5H186.042ZM186.542 63.25H183.417V64.25H186.542V63.25ZM182.917 63.75V66.875H183.917V63.75H182.917ZM183.417 66.375H167.792V67.375H183.417V66.375ZM199.042 66.875H198.542V67.375H199.042V66.875ZM199.042 54.375H199.542V53.875H199.042V54.375ZM192.792 54.375H192.292V54.875H192.792V54.375ZM192.792 51.25V50.75H192.292V51.25H192.792ZM199.042 51.25V51.75H199.542V51.25H199.042ZM199.042 45V44.5H198.542V45H199.042ZM205.292 45H205.792V44.5H205.292V45ZM205.292 51.25H204.792V51.75H205.292V51.25ZM211.542 51.25H212.042V50.75H211.542V51.25ZM211.542 54.375V54.875H212.042V54.375H211.542ZM205.292 54.375V53.875H204.792V54.375H205.292ZM205.292 66.875V67.375H205.792V66.875H205.292ZM199.542 66.875V54.375H198.542V66.875H199.542ZM199.042 53.875H192.792V54.875H199.042V53.875ZM193.292 54.375V51.25H192.292V54.375H193.292ZM192.792 51.75H199.042V50.75H192.792V51.75ZM199.542 51.25V45H198.542V51.25H199.542ZM199.042 45.5H205.292V44.5H199.042V45.5ZM204.792 45V51.25H205.792V45H204.792ZM205.292 51.75H211.542V50.75H205.292V51.75ZM211.042 51.25V54.375H212.042V51.25H211.042ZM211.542 53.875H205.292V54.875H211.542V53.875ZM204.792 54.375V66.875H205.792V54.375H204.792ZM205.292 66.375H199.042V67.375H205.292V66.375ZM217.792 66.875H217.292V67.375H217.792V66.875ZM217.792 63.75H218.292V63.25H217.792V63.75ZM214.667 63.75H214.167V64.25H214.667V63.75ZM214.667 51.25V50.75H214.167V51.25H214.667ZM220.917 51.25H221.417V50.75H220.917V51.25ZM220.917 63.75H220.417V64.25H220.917V63.75ZM230.292 63.75V64.25H230.792V63.75H230.292ZM230.292 51.25V50.75H229.792V51.25H230.292ZM236.542 51.25H237.042V50.75H236.542V51.25ZM236.542 66.875V67.375H237.042V66.875H236.542ZM218.292 66.875V63.75H217.292V66.875H218.292ZM217.792 63.25H214.667V64.25H217.792V63.25ZM215.167 63.75V51.25H214.167V63.75H215.167ZM214.667 51.75H220.917V50.75H214.667V51.75ZM220.417 51.25V63.75H221.417V51.25H220.417ZM220.917 64.25H230.292V63.25H220.917V64.25ZM230.792 63.75V51.25H229.792V63.75H230.792ZM230.292 51.75H236.542V50.75H230.292V51.75ZM236.042 51.25V66.875H237.042V51.25H236.042ZM236.542 66.375H217.792V67.375H236.542V66.375ZM242.792 66.875H242.292V67.375H242.792V66.875ZM242.792 63.75H243.292V63.25H242.792V63.75ZM239.667 63.75H239.167V64.25H239.667V63.75ZM239.667 54.375V53.875H239.167V54.375H239.667ZM242.792 54.375V54.875H243.292V54.375H242.792ZM242.792 51.25V50.75H242.292V51.25H242.792ZM255.292 51.25V51.75H255.792V51.25H255.292ZM255.292 45V44.5H254.792V45H255.292ZM261.542 45H262.042V44.5H261.542V45ZM261.542 66.875V67.375H262.042V66.875H261.542ZM245.917 63.75H245.417V64.25H245.917V63.75ZM255.292 63.75V64.25H255.792V63.75H255.292ZM255.292 54.375H255.792V53.875H255.292V54.375ZM245.917 54.375V53.875H245.417V54.375H245.917ZM243.292 66.875V63.75H242.292V66.875H243.292ZM242.792 63.25H239.667V64.25H242.792V63.25ZM240.167 63.75V54.375H239.167V63.75H240.167ZM239.667 54.875H242.792V53.875H239.667V54.875ZM243.292 54.375V51.25H242.292V54.375H243.292ZM242.792 51.75H255.292V50.75H242.792V51.75ZM255.792 51.25V45H254.792V51.25H255.792ZM255.292 45.5H261.542V44.5H255.292V45.5ZM261.042 45V66.875H262.042V45H261.042ZM261.542 66.375H242.792V67.375H261.542V66.375ZM245.917 64.25H255.292V63.25H245.917V64.25ZM255.792 63.75V54.375H254.792V63.75H255.792ZM255.292 53.875H245.917V54.875H255.292V53.875ZM245.417 54.375V63.75H246.417V54.375H245.417ZM274.042 48.125H273.542V48.625H274.042V48.125ZM274.042 45V44.5H273.542V45H274.042ZM280.292 45H280.792V44.5H280.292V45ZM280.292 48.125V48.625H280.792V48.125H280.292ZM267.792 66.875H267.292V67.375H267.792V66.875ZM267.792 63.75V63.25H267.292V63.75H267.792ZM274.042 63.75V64.25H274.542V63.75H274.042ZM274.042 54.375H274.542V53.875H274.042V54.375ZM270.917 54.375H270.417V54.875H270.917V54.375ZM270.917 51.25V50.75H270.417V51.25H270.917ZM280.292 51.25H280.792V50.75H280.292V51.25ZM280.292 63.75H279.792V64.25H280.292V63.75ZM286.542 63.75H287.042V63.25H286.542V63.75ZM286.542 66.875V67.375H287.042V66.875H286.542ZM274.542 48.125V45H273.542V48.125H274.542ZM274.042 45.5H280.292V44.5H274.042V45.5ZM279.792 45V48.125H280.792V45H279.792ZM280.292 47.625H274.042V48.625H280.292V47.625ZM268.292 66.875V63.75H267.292V66.875H268.292ZM267.792 64.25H274.042V63.25H267.792V64.25ZM274.542 63.75V54.375H273.542V63.75H274.542ZM274.042 53.875H270.917V54.875H274.042V53.875ZM271.417 54.375V51.25H270.417V54.375H271.417ZM270.917 51.75H280.292V50.75H270.917V51.75ZM279.792 51.25V63.75H280.792V51.25H279.792ZM280.292 64.25H286.542V63.25H280.292V64.25ZM286.042 63.75V66.875H287.042V63.75H286.042ZM286.542 66.375H267.792V67.375H286.542V66.375ZM292.792 66.875H292.292V67.375H292.792V66.875ZM292.792 63.75H293.292V63.25H292.792V63.75ZM289.667 63.75H289.167V64.25H289.667V63.75ZM289.667 54.375V53.875H289.167V54.375H289.667ZM292.792 54.375V54.875H293.292V54.375H292.792ZM292.792 51.25V50.75H292.292V51.25H292.792ZM308.417 51.25H308.917V50.75H308.417V51.25ZM308.417 54.375H307.917V54.875H308.417V54.375ZM311.542 54.375H312.042V53.875H311.542V54.375ZM311.542 63.75V64.25H312.042V63.75H311.542ZM308.417 63.75V63.25H307.917V63.75H308.417ZM308.417 66.875V67.375H308.917V66.875H308.417ZM295.917 63.75H295.417V64.25H295.917V63.75ZM305.292 63.75V64.25H305.792V63.75H305.292ZM305.292 54.375H305.792V53.875H305.292V54.375ZM295.917 54.375V53.875H295.417V54.375H295.917ZM293.292 66.875V63.75H292.292V66.875H293.292ZM292.792 63.25H289.667V64.25H292.792V63.25ZM290.167 63.75V54.375H289.167V63.75H290.167ZM289.667 54.875H292.792V53.875H289.667V54.875ZM293.292 54.375V51.25H292.292V54.375H293.292ZM292.792 51.75H308.417V50.75H292.792V51.75ZM307.917 51.25V54.375H308.917V51.25H307.917ZM308.417 54.875H311.542V53.875H308.417V54.875ZM311.042 54.375V63.75H312.042V54.375H311.042ZM311.542 63.25H308.417V64.25H311.542V63.25ZM307.917 63.75V66.875H308.917V63.75H307.917ZM308.417 66.375H292.792V67.375H308.417V66.375ZM295.917 64.25H305.292V63.25H295.917V64.25ZM305.792 63.75V54.375H304.792V63.75H305.792ZM305.292 53.875H295.917V54.875H305.292V53.875ZM295.417 54.375V63.75H296.417V54.375H295.417Z" fill="white"/>
</svg>
