<?xml version="1.0" encoding="UTF-8" standalone="no"?>
<!DOCTYPE svg PUBLIC "-//W3C//DTD SVG 1.1//EN" "http://www.w3.org/Graphics/SVG/1.1/DTD/svg11.dtd">
<svg width="100%" height="100%" viewBox="0 0 24 24" version="1.1" xmlns="http://www.w3.org/2000/svg" xmlns:xlink="http://www.w3.org/1999/xlink" xml:space="preserve" xmlns:serif="http://www.serif.com/" style="fill-rule:evenodd;clip-rule:evenodd;stroke-linejoin:round;stroke-miterlimit:2;">
    <path fill="currentColor" d="M13,11L13,9L7,9L7,11L4,11L4,14L5,14L5,12L7,12L7,15L13,15L13,12L14,12L14,15L20,15L20,9L14,9L14,11L13,11ZM15,10L15,14L17,14L17,10L15,10ZM8,10L8,14L10,14L10,10L8,10Z"/>
</svg>
