<?xml version="1.0" encoding="UTF-8" standalone="no"?>
<!DOCTYPE svg PUBLIC "-//W3C//DTD SVG 1.1//EN" "http://www.w3.org/Graphics/SVG/1.1/DTD/svg11.dtd">
<svg width="100%" height="100%" viewBox="0 0 24 24" version="1.1" xmlns="http://www.w3.org/2000/svg" xmlns:xlink="http://www.w3.org/1999/xlink" xml:space="preserve" xmlns:serif="http://www.serif.com/" style="fill-rule:evenodd;clip-rule:evenodd;stroke-linejoin:round;stroke-miterlimit:2;">
    <path fill="currentColor" d="M20,19L20,4L4,4L4,11L6,11L6,9L12,9L12,11L13,11L13,9L19,9L19,15L13,15L13,12L12,12L12,15L6,15L6,12L4,12L4,19L20,19ZM18,14L16,14L16,10L18,10L18,14ZM11,14L9,14L9,10L11,10L11,14Z"/>
</svg>
