<svg height="60" viewBox="0 0 460 120" fill="none" xmlns="http://www.w3.org/2000/svg">
    <path d="M60 30H80V90H60V30Z" fill="white" />
    <path d="M80 30H120V90H80V30Z" fill="black" />
    <path d="M150 30H170V90H150V30Z" fill="white" />
    <path d="M170 30H210V90H170V30Z" fill="black" />
    <path fill-rule="evenodd" clip-rule="evenodd"
        d="M130 20H50V50H20V80H30V60H50V100H130V60H140V100H220V20H140V50H130V20ZM210 30H150V90H210V30ZM60 30H120V90H60V30Z"
        fill="#2B83F6" />
    <path fill-rule="evenodd" clip-rule="evenodd" d="M255 35H270V50H240V20H255V35Z" fill="#FF638D" />
    <path fill-rule="evenodd" clip-rule="evenodd" d="M280 20H295V50H280V20Z" fill="#FFEF16" />
    <path fill-rule="evenodd" clip-rule="evenodd" d="M320 35H335V50H305V20H320V35Z" fill="#2B83F6" />
    <path
        d="M412.502 100V94.2858H407.919V77.143H412.502V71.4287H435.417V77.143H440V94.2858H435.417V100H412.502ZM417.085 94.2858H430.834V77.143H417.085V94.2858Z"
        fill="white" />
    <path
        d="M387.571 65.7143V60H396.737V65.7143H387.571ZM378.405 99.9999V94.2856H387.571V77.1428H382.988V71.4285H396.737V94.2856H405.903V99.9999H378.405Z"
        fill="white" />
    <path
        d="M348.341 99.9999V94.2856H343.758V77.1428H348.341V71.4285H366.673V60H375.838V99.9999H348.341ZM352.924 94.2856H366.673V77.1428H352.924V94.2856Z"
        fill="white" />
    <path d="M312.044 100V94.2858H307.461V71.4287H316.627V94.2858H330.376V71.4287H339.542V100H312.044Z" fill="white" />
    <path d="M284.18 99.9999V77.1428H275.014V71.4285H284.18V60H293.346V71.4285H302.512V77.1428H293.346V99.9999H284.18Z"
        fill="white" />
    <path
        d="M244.583 99.9999V94.2856H240V88.5713H249.166V94.2856H262.915V82.8571H244.583V77.1428H240V65.7143H244.583V60H267.498V65.7143H272.081V71.4285H262.915V65.7143H249.166V77.1428H267.498V82.8571H272.081V94.2856H267.498V99.9999H244.583Z"
        fill="white" />
</svg>